<?xml version="1.0" encoding="utf-8"?>
<!-- Generator: Adobe Illustrator 20.1.0, SVG Export Plug-In . SVG Version: 6.00 Build 0)  -->
<svg version="1.1" id="Layer_1" xmlns="http://www.w3.org/2000/svg" xmlns:xlink="http://www.w3.org/1999/xlink" x="0px" y="0px"
	 viewBox="0 0 160 34.8" style="enable-background:new 0 0 160 34.8;" xml:space="preserve">
<style type="text/css">
	.st0{fill:#A6CE39;}
	.st1{fill:#96AAAD;}
	.st2{fill:#89A3A9;}
	.st3{enable-background:new    ;}
</style>
<g>
	<g>
		<path class="st0" d="M23.7,25h1.1v2.3l1.9-2.3H28l-2.2,2.5l2.2,2.8h-1.4l-1.9-2.4l0,0v2.4h-1.1V25H23.7z"/>
		<path class="st0" d="M31.4,24.9c1.6,0,2.6,1.1,2.6,2.7s-0.9,2.7-2.6,2.7c-1.7,0-2.6-1.1-2.6-2.7C28.9,26,29.8,24.9,31.4,24.9z
			 M31.4,29.5c1.1,0,1.5-1,1.5-1.9s-0.4-1.9-1.5-1.9c-1,0-1.5,0.9-1.5,1.9C30,28.6,30.4,29.5,31.4,29.5z"/>
		<path class="st0" d="M35.3,25H37l1.2,4l0,0l1.2-4h1.7v5.2h-1v-4.3l0,0l-1.4,4.3h-1l-1.4-4.3l0,0v4.3h-1V25z"/>
		<path class="st0" d="M42.8,25h1.7l1.2,4l0,0l1.2-4h1.7v5.2h-1v-4.3l0,0l-1.4,4.3h-1l-1.4-4.3l0,0v4.3h-1V25z"/>
		<path class="st0" d="M50.2,25h1.1v3c0,0.9,0.3,1.5,1.1,1.5s1.1-0.6,1.1-1.5v-3h1.1v3.3c0,1.4-0.8,2-2.1,2s-2.1-0.6-2.1-2V25H50.2z
			"/>
		<path class="st0" d="M56,25h1.3l2,3.9l0,0V25h1v5.2H59l-2-3.9l0,0v3.9h-1V25z"/>
		<path class="st0" d="M61.7,25h1.1v5.2h-1.1V25z"/>
		<path class="st0" d="M64.3,25h1.1v2.3l1.9-2.3h1.3l-2.2,2.5l2.2,2.8h-1.4l-1.9-2.4l0,0v2.4h-1.1L64.3,25L64.3,25z"/>
		<path class="st0" d="M71.2,25h1.2l2.1,5.2h-1.2L72.8,29h-2.1l-0.5,1.2h-1.1L71.2,25z M71.7,26.1L71.7,26.1L71,28.2h1.5L71.7,26.1z
			"/>
		<path class="st0" d="M76.4,25.8h-1.5V25H79v0.8h-1.5v4.4h-1.1V25.8z"/>
		<path class="st0" d="M79.9,25H81v5.2h-1.1V25z"/>
		<path class="st0" d="M84.8,24.9c1.6,0,2.6,1.1,2.6,2.7s-0.9,2.7-2.6,2.7s-2.6-1.1-2.6-2.7C82.2,26,83.1,24.9,84.8,24.9z
			 M84.8,29.5c1.1,0,1.5-1,1.5-1.9s-0.4-1.9-1.5-1.9c-1,0-1.5,0.9-1.5,1.9S83.7,29.5,84.8,29.5z"/>
		<path class="st0" d="M88.6,25h1.3l2,3.9l0,0V25h1v5.2h-1.3l-2-3.9l0,0v3.9h-1V25z"/>
		<path class="st0" d="M100.2,28.6c0.3-0.3,0.3-0.7,0.3-1.1h0.9c0,0.7-0.2,1.3-0.7,1.8l0.9,1.1h-1.3l-0.4-0.5
			c-0.4,0.4-0.9,0.6-1.4,0.6c-1,0-1.9-0.5-1.9-1.5c0-0.6,0.3-1.1,1.1-1.4c-0.4-0.4-0.7-0.7-0.7-1.3c0-0.8,0.9-1.2,1.6-1.2
			s1.5,0.3,1.5,1.2c0,0.7-0.4,1.1-1,1.4L100.2,28.6z M98.4,28c-0.3,0.2-0.6,0.4-0.6,0.8c0,0.5,0.4,0.8,0.9,0.8
			c0.4,0,0.7-0.1,0.9-0.3L98.4,28z M99.3,26.2c0-0.4-0.3-0.5-0.6-0.5c-0.3,0-0.6,0.2-0.6,0.6c0,0.3,0.3,0.5,0.5,0.7
			C98.9,26.8,99.3,26.5,99.3,26.2z"/>
		<path class="st0" d="M105.2,25h1.4c1.6,0,3,0.5,3,2.6s-1.4,2.6-3,2.6h-1.4V25z M106.2,29.4h0.6c0.9,0,1.7-0.7,1.7-1.8
			c0-1.1-0.8-1.8-1.7-1.8h-0.6V29.4z"/>
		<path class="st0" d="M110.9,25h3.1v0.8h-2v1.3h1.9V28H112v1.5h2.1v0.8H111L110.9,25L110.9,25z"/>
		<path class="st0" d="M118.3,26c-0.3-0.1-0.7-0.2-1.1-0.2s-0.8,0.2-0.8,0.7c0,0.9,2.3,0.5,2.3,2.3c0,1.1-0.9,1.6-2,1.6
			c-0.6,0-0.8-0.1-1.3-0.2l0.1-0.9c0.4,0.2,0.8,0.3,1.2,0.3c0.4,0,0.9-0.2,0.9-0.7c0-1-2.3-0.6-2.3-2.3c0-1.2,0.9-1.6,1.8-1.6
			c0.5,0,0.9,0.1,1.3,0.2L118.3,26z"/>
		<path class="st0" d="M119.9,25h1.1v5.2h-1.1V25z"/>
		<path class="st0" d="M126.6,26c-0.4-0.2-0.9-0.3-1.4-0.3c-1.2,0-1.9,0.8-1.9,1.9s0.7,1.9,1.8,1.9c0.3,0,0.5,0,0.7-0.1V28h-1.1
			v-0.8h2.1V30c-0.6,0.2-1.1,0.3-1.7,0.3c-1.7,0-2.9-0.8-2.9-2.6c0-1.8,1.1-2.8,2.9-2.8c0.6,0,1.1,0.1,1.5,0.2L126.6,26z"/>
		<path class="st0" d="M128.2,25h1.3l2,3.9l0,0V25h1v5.2h-1.3l-2-3.9l0,0v3.9h-1V25z"/>
	</g>
	<g>
		<path class="st1" d="M5.6,5.4h3c2.9,0,4.4,1.2,4.4,3.3c0,1.5-0.8,2.5-2.3,3l3,5.5h-1.9L9,11.9H7.2v5.2H5.5V5.4H5.6z M7.3,10.5h1.2
			c2,0,2.9-0.6,2.9-1.9s-0.9-1.9-2.9-1.9H7.3V10.5z"/>
		<path class="st1" d="M20.9,5.1c2.5,0,3.9,2.1,3.9,6.1s-1.4,6.2-3.9,6.2S17,15.3,17,11.2S18.4,5.1,20.9,5.1z M20.9,16
			c1.6,0,2.2-1.5,2.2-4.7s-0.6-4.7-2.2-4.7s-2.2,1.5-2.2,4.7C18.7,14.4,19.3,16,20.9,16z"/>
		<path class="st1" d="M32.6,5.1c2.5,0,3.9,2.1,3.9,6.1s-1.4,6.2-3.9,6.2s-3.9-2.1-3.9-6.2S30.1,5.1,32.6,5.1z M32.6,16
			c1.6,0,2.2-1.5,2.2-4.7s-0.6-4.7-2.2-4.7c-1.6,0-2.2,1.5-2.2,4.7C30.4,14.4,31,16,32.6,16z"/>
		<path class="st1" d="M40.9,5.4h7.2v1.4h-5.6v3.7h4V12h-4v5.2h-1.7L40.9,5.4L40.9,5.4z"/>
		<path class="st1" d="M54.6,6.9h-3.4V5.4h8.5v1.4h-3.4v10.3h-1.7C54.6,17.1,54.6,6.9,54.6,6.9z"/>
		<path class="st1" d="M66.6,5.1c2.5,0,3.9,2.1,3.9,6.1s-1.4,6.2-3.9,6.2s-3.9-2.1-3.9-6.2S64.1,5.1,66.6,5.1z M66.6,16
			c1.6,0,2.2-1.5,2.2-4.7s-0.6-4.7-2.2-4.7s-2.2,1.5-2.2,4.7C64.3,14.4,65,16,66.6,16z"/>
		<path class="st1" d="M75,5.4h3c2.9,0,4.4,1.2,4.4,3.5s-1.6,3.5-4.4,3.5h-1.3v4.7H75V5.4z M76.7,11.1h1.2c2,0,2.9-0.6,2.9-2.1
			s-0.9-2.1-2.9-2.1h-1.2V11.1z"/>
	</g>
	<g>
		<path class="st1" d="M90.8,5.4h2.8c3.4,0,5.3,2,5.3,5.8s-1.8,5.9-5.3,5.9h-2.8V5.4z M93.3,15.7c2.6,0,3.7-1.3,3.7-4.4
			s-1.1-4.4-3.7-4.4h-0.9v8.8C92.4,15.7,93.3,15.7,93.3,15.7z"/>
		<path class="st1" d="M103.1,5.4h7.3v1.5h-5.6v3.3h4.1v1.4h-4.1v4h5.8v1.5h-7.5C103.1,17.1,103.1,5.4,103.1,5.4z"/>
		<path class="st1" d="M115.9,13.8c0.7,1.4,1.5,2.1,2.6,2.1c1.2,0,2-0.7,2-1.9c0-0.5-0.2-0.9-0.5-1.3c-0.6-0.6-1.5-0.9-2.3-1.3
			c-0.8-0.4-1.6-0.7-2.2-1.5c-0.4-0.5-0.6-1.1-0.6-1.8c0-1.9,1.4-3.2,3.4-3.2c1.6,0,2.8,0.8,3.7,2.5l-1.3,0.8
			c-0.6-1.3-1.3-1.9-2.3-1.9c-1.1,0-1.7,0.6-1.7,1.5c0,0.3,0.1,0.7,0.3,0.9c0.5,0.6,1.3,0.9,2.2,1.3c2,1,3,1.9,3,3.7
			c0,2-1.5,3.4-3.7,3.4c-1.9,0-3.2-0.9-4-2.7L115.9,13.8z"/>
		<path class="st2" d="M126,16h1V6.5h-1V5.4h3.7v1.1h-1V16h1v1.1H126V16z"/>
		<path class="st1" d="M140.8,17.3l-0.6-1.2h-0.3c-0.7,0.9-1.5,1.3-2.5,1.3c-2.4,0-3.9-2.2-3.9-6.2c0-3.9,1.6-6.1,4.2-6.1
			c1.6,0,2.8,1,3.3,2.8l-1.6,0.4c-0.3-1.1-0.9-1.7-1.9-1.7c-1.6,0-2.4,1.5-2.4,4.6s0.8,4.7,2.4,4.7c1.2,0,2.3-1.1,2.3-2.7v-0.1h-2.2
			v-1.4h3.8v5.6C141.4,17.3,140.8,17.3,140.8,17.3z"/>
		<path class="st1" d="M146.1,5.4h2.2l2.7,6.1c0.6,1.2,1.1,2.5,1.6,3.9h0.1v-10h1.4v11.7h-2.2l-2.9-6.5c-0.5-1.2-1-2.4-1.4-3.6h-0.1
			v10.1h-1.4L146.1,5.4L146.1,5.4z"/>
	</g>
</g>
<rect x="3.5" y="-22.2" class="st2" width="12.5" height="12.5"/>
<rect x="3.5" y="-40" class="st0" width="12.5" height="12.5"/>
<text transform="matrix(1 0 0 1 19.5 -12.4785)" style="font-family:'MyriadPro-Regular'; font-size:12px;">89A3A9</text>
<text transform="matrix(1 0 0 1 18.25 -30.2285)" style="font-family:'MyriadPro-Regular'; font-size:12px;">A6CE39</text>
<rect x="10.8" y="47" class="st0" width="150.3" height="7.7"/>
</svg>
